<svg width="380" height="174" viewBox="0 0 380 174" fill="none" xmlns="http://www.w3.org/2000/svg">
<path d="M21.7188 13.1797L21.5703 17.7422H19.3828V15H18.4531V13.1797H21.7188ZM10.8984 15V3.625H13.2344V13.1719H17.8125V3.625H20.1641V15H10.8984ZM27.2266 11.4688H24.5781L24.5625 9.99219H26.75C27.0417 9.99219 27.2786 9.96354 27.4609 9.90625C27.6432 9.84375 27.776 9.7526 27.8594 9.63281C27.9479 9.50781 27.9922 9.35677 27.9922 9.17969C27.9922 9.02344 27.9635 8.89062 27.9062 8.78125C27.8542 8.66667 27.7734 8.57292 27.6641 8.5C27.5547 8.42708 27.4167 8.375 27.25 8.34375C27.0885 8.30729 26.8984 8.28906 26.6797 8.28906H25.4141V15H23.1641V6.54688H26.6797C27.2318 6.54688 27.7266 6.59635 28.1641 6.69531C28.6016 6.78906 28.974 6.93229 29.2812 7.125C29.5938 7.31771 29.8307 7.5625 29.9922 7.85938C30.1589 8.15104 30.2422 8.4974 30.2422 8.89844C30.2422 9.15885 30.1823 9.40365 30.0625 9.63281C29.9479 9.86198 29.776 10.0651 29.5469 10.2422C29.3177 10.4193 29.0339 10.5651 28.6953 10.6797C28.362 10.7891 27.9766 10.8568 27.5391 10.8828L27.2266 11.4688ZM27.2266 15H24.0234L24.7969 13.2578H27.2266C27.5026 13.2578 27.7292 13.224 27.9062 13.1562C28.0833 13.0885 28.2135 12.9896 28.2969 12.8594C28.3854 12.724 28.4297 12.5625 28.4297 12.375C28.4297 12.1927 28.3906 12.0339 28.3125 11.8984C28.2344 11.763 28.1068 11.6589 27.9297 11.5859C27.7578 11.5078 27.5234 11.4688 27.2266 11.4688H25.125L25.1406 9.99219H27.5312L28.0781 10.5859C28.6719 10.6224 29.1615 10.7344 29.5469 10.9219C29.9323 11.1094 30.2161 11.349 30.3984 11.6406C30.5859 11.9271 30.6797 12.2422 30.6797 12.5859C30.6797 12.987 30.6042 13.3385 30.4531 13.6406C30.3021 13.9427 30.0781 14.1953 29.7812 14.3984C29.4896 14.5964 29.1302 14.7474 28.7031 14.8516C28.276 14.9505 27.7839 15 27.2266 15ZM35.9531 15.1562C35.2969 15.1562 34.7083 15.0521 34.1875 14.8438C33.6667 14.6302 33.224 14.3359 32.8594 13.9609C32.5 13.5859 32.224 13.151 32.0312 12.6562C31.8385 12.1562 31.7422 11.625 31.7422 11.0625V10.75C31.7422 10.1094 31.8333 9.52344 32.0156 8.99219C32.1979 8.46094 32.4583 8 32.7969 7.60938C33.1406 7.21875 33.5573 6.91927 34.0469 6.71094C34.5365 6.4974 35.0885 6.39062 35.7031 6.39062C36.3021 6.39062 36.8333 6.48958 37.2969 6.6875C37.7604 6.88542 38.1484 7.16667 38.4609 7.53125C38.7786 7.89583 39.0182 8.33333 39.1797 8.84375C39.3411 9.34896 39.4219 9.91146 39.4219 10.5312V11.4688H32.7031V9.96875H37.2109V9.79688C37.2109 9.48438 37.1536 9.20573 37.0391 8.96094C36.9297 8.71094 36.763 8.51302 36.5391 8.36719C36.3151 8.22135 36.0286 8.14844 35.6797 8.14844C35.3828 8.14844 35.1276 8.21354 34.9141 8.34375C34.7005 8.47396 34.526 8.65625 34.3906 8.89062C34.2604 9.125 34.1615 9.40104 34.0938 9.71875C34.0312 10.0312 34 10.375 34 10.75V11.0625C34 11.401 34.0469 11.7135 34.1406 12C34.2396 12.2865 34.3776 12.5339 34.5547 12.7422C34.737 12.9505 34.9557 13.112 35.2109 13.2266C35.4714 13.3411 35.7656 13.3984 36.0938 13.3984C36.5 13.3984 36.8776 13.3203 37.2266 13.1641C37.5807 13.0026 37.8854 12.7604 38.1406 12.4375L39.2344 13.625C39.0573 13.8802 38.8151 14.125 38.5078 14.3594C38.2057 14.5938 37.8411 14.7865 37.4141 14.9375C36.987 15.0833 36.5 15.1562 35.9531 15.1562ZM44.9141 6.54688V15H42.6562V6.54688H44.9141ZM47.6328 6.54688V8.28906H39.9766V6.54688H47.6328ZM53.2188 13.0938V9.32812C53.2188 9.05729 53.1745 8.82552 53.0859 8.63281C52.9974 8.4349 52.8594 8.28125 52.6719 8.17188C52.4896 8.0625 52.2526 8.00781 51.9609 8.00781C51.7109 8.00781 51.4948 8.05208 51.3125 8.14062C51.1302 8.22396 50.9896 8.34635 50.8906 8.50781C50.7917 8.66406 50.7422 8.84896 50.7422 9.0625H48.4922C48.4922 8.70312 48.5755 8.36198 48.7422 8.03906C48.9089 7.71615 49.151 7.43229 49.4688 7.1875C49.7865 6.9375 50.1641 6.74219 50.6016 6.60156C51.0443 6.46094 51.5391 6.39062 52.0859 6.39062C52.7422 6.39062 53.3255 6.5 53.8359 6.71875C54.3464 6.9375 54.7474 7.26562 55.0391 7.70312C55.3359 8.14062 55.4844 8.6875 55.4844 9.34375V12.9609C55.4844 13.4245 55.513 13.8047 55.5703 14.1016C55.6276 14.3932 55.7109 14.6484 55.8203 14.8672V15H53.5469C53.4375 14.7708 53.3542 14.4844 53.2969 14.1406C53.2448 13.7917 53.2188 13.4427 53.2188 13.0938ZM53.5156 9.85156L53.5312 11.125H52.2734C51.9766 11.125 51.7188 11.1589 51.5 11.2266C51.2812 11.2943 51.1016 11.3906 50.9609 11.5156C50.8203 11.6354 50.7161 11.776 50.6484 11.9375C50.5859 12.099 50.5547 12.276 50.5547 12.4688C50.5547 12.6615 50.599 12.8359 50.6875 12.9922C50.776 13.1432 50.9036 13.263 51.0703 13.3516C51.237 13.4349 51.4323 13.4766 51.6562 13.4766C51.9948 13.4766 52.2891 13.4089 52.5391 13.2734C52.7891 13.138 52.9818 12.9714 53.1172 12.7734C53.2578 12.5755 53.3307 12.388 53.3359 12.2109L53.9297 13.1641C53.8464 13.3776 53.7318 13.599 53.5859 13.8281C53.4453 14.0573 53.2656 14.2734 53.0469 14.4766C52.8281 14.6745 52.5651 14.8385 52.2578 14.9688C51.9505 15.0938 51.5859 15.1562 51.1641 15.1562C50.6276 15.1562 50.1406 15.0495 49.7031 14.8359C49.2708 14.6172 48.9271 14.3177 48.6719 13.9375C48.4219 13.5521 48.2969 13.1146 48.2969 12.625C48.2969 12.1823 48.3802 11.7891 48.5469 11.4453C48.7135 11.1016 48.9583 10.8125 49.2812 10.5781C49.6094 10.3385 50.0182 10.1589 50.5078 10.0391C50.9974 9.91406 51.5651 9.85156 52.2109 9.85156H53.5156Z" fill="#212121"/>
<g filter="url(#filter0_d_8_72)">
<rect x="10" y="59" width="100" height="100" fill="#212121"/>
<rect x="10.5" y="59.5" width="99" height="99" stroke="#EBEBEB" stroke-opacity="0.3"/>
</g>
<g filter="url(#filter1_d_8_72)">
<rect x="140" y="59" width="100" height="100" fill="#09A494"/>
<rect x="140.5" y="59.5" width="99" height="99" stroke="#EBEBEB" stroke-opacity="0.3"/>
</g>
<g filter="url(#filter2_d_8_72)">
<rect x="270" y="59" width="100" height="100" fill="white"/>
<rect x="270.5" y="59.5" width="99" height="99" stroke="#EBEBEB" stroke-opacity="0.3"/>
</g>
<defs>
<filter id="filter0_d_8_72" x="0" y="54" width="120" height="120" filterUnits="userSpaceOnUse" color-interpolation-filters="sRGB">
<feFlood flood-opacity="0" result="BackgroundImageFix"/>
<feColorMatrix in="SourceAlpha" type="matrix" values="0 0 0 0 0 0 0 0 0 0 0 0 0 0 0 0 0 0 127 0" result="hardAlpha"/>
<feOffset dy="5"/>
<feGaussianBlur stdDeviation="5"/>
<feColorMatrix type="matrix" values="0 0 0 0 0.223529 0 0 0 0 0.32549 0 0 0 0 0.831373 0 0 0 0.1 0"/>
<feBlend mode="normal" in2="BackgroundImageFix" result="effect1_dropShadow_8_72"/>
<feBlend mode="normal" in="SourceGraphic" in2="effect1_dropShadow_8_72" result="shape"/>
</filter>
<filter id="filter1_d_8_72" x="130" y="54" width="120" height="120" filterUnits="userSpaceOnUse" color-interpolation-filters="sRGB">
<feFlood flood-opacity="0" result="BackgroundImageFix"/>
<feColorMatrix in="SourceAlpha" type="matrix" values="0 0 0 0 0 0 0 0 0 0 0 0 0 0 0 0 0 0 127 0" result="hardAlpha"/>
<feOffset dy="5"/>
<feGaussianBlur stdDeviation="5"/>
<feColorMatrix type="matrix" values="0 0 0 0 0.223529 0 0 0 0 0.32549 0 0 0 0 0.831373 0 0 0 0.1 0"/>
<feBlend mode="normal" in2="BackgroundImageFix" result="effect1_dropShadow_8_72"/>
<feBlend mode="normal" in="SourceGraphic" in2="effect1_dropShadow_8_72" result="shape"/>
</filter>
<filter id="filter2_d_8_72" x="260" y="54" width="120" height="120" filterUnits="userSpaceOnUse" color-interpolation-filters="sRGB">
<feFlood flood-opacity="0" result="BackgroundImageFix"/>
<feColorMatrix in="SourceAlpha" type="matrix" values="0 0 0 0 0 0 0 0 0 0 0 0 0 0 0 0 0 0 127 0" result="hardAlpha"/>
<feOffset dy="5"/>
<feGaussianBlur stdDeviation="5"/>
<feColorMatrix type="matrix" values="0 0 0 0 0.223529 0 0 0 0 0.32549 0 0 0 0 0.831373 0 0 0 0.1 0"/>
<feBlend mode="normal" in2="BackgroundImageFix" result="effect1_dropShadow_8_72"/>
<feBlend mode="normal" in="SourceGraphic" in2="effect1_dropShadow_8_72" result="shape"/>
</filter>
</defs>
</svg>
